<?xml version="1.0" encoding="UTF-8" standalone="no"?>
<!-- Created with Inkscape (http://www.inkscape.org/) -->

<svg
   xmlns:dc="http://purl.org/dc/elements/1.1/"
   xmlns:cc="http://creativecommons.org/ns#"
   xmlns:rdf="http://www.w3.org/1999/02/22-rdf-syntax-ns#"
   xmlns:svg="http://www.w3.org/2000/svg"
   xmlns="http://www.w3.org/2000/svg"
   version="1.1"
   width="152.13722"
   height="84.814529"
   id="svg5062"
   xml:space="preserve"><metadata
     id="metadata5068"><rdf:RDF><cc:Work
         rdf:about=""><dc:format>image/svg+xml</dc:format><dc:type
           rdf:resource="http://purl.org/dc/dcmitype/StillImage" /><dc:title></dc:title></cc:Work></rdf:RDF></metadata><defs
     id="defs5066" /><path
     d="m 63.29925,40.522 -0.75,-0.0185 -0.7375,-0.05625 -0.725,-0.09275 -0.7125,-0.127375 -0.7,-0.162125 -0.7,-0.19625 -0.675,-0.227625 -0.65,-0.26125 -0.65,-0.2915 -0.625,-0.31975 -0.6125,-0.351625 -0.5875,-0.377375 -0.5625,-0.40625 -0.55,-0.431125 -0.5375,-0.457625 -0.5,-0.480875 -0.4875,-0.504875 -0.45,-0.527875 -0.4375,-0.54975 -0.4,-0.570375 -0.375,-0.589875 -0.35,-0.608875 -0.325,-0.627375 -0.2875,-0.645 -0.2625,-0.65975 -0.225,-0.67625 -0.2,-0.689875 -0.1625,-0.704125 -0.125,-0.716375 -0.1,-0.7285 -0.05,-0.73875 -0.025,-0.7485 c 0,-8.0225 6.5125,-14.53125 14.5375,-14.53125 8.0375,0 14.5375,6.50875 14.5375,14.53125 0,8.036125 -6.5,14.544375 -14.5375,14.544375 z"
     id="path5076"
     style="fill:none;stroke:none" /><path
     d="M 76.06105,4.687e-5 C 34.05155,4.687e-5 5e-4,18.984891 5e-4,42.402391 c 0,13.267125 10.92186,25.101137 28.02148,32.875 C 19.94086,69.790028 14.61912,62.304266 13.438,53.418016 10.753,33.232016 30.26831,12.597656 58.58644,3.8027812 43.89894,10.467781 33.66261,25.230016 33.66261,42.402391 c 0,23.21725 18.64844,42.045898 41.77344,42.382812 -0.0375,0.0049 -0.0867,0.01465 -0.13672,0.01953 0.2625,0 0.51172,0.0098 0.76172,0.0098 42.0125,0 76.07617,-18.984859 76.07617,-42.412109 0,-13.26125 -10.93711,-25.097594 -28.03711,-32.8710941 l 0.75,0.5214841 0.73633,0.53125 0.71289,0.542969 0.69922,0.554688 0.6875,0.566406 0.66406,0.578125 0.64844,0.58789 0.625,0.59961 0.61328,0.609375 0.58789,0.621094 0.57422,0.630859 0.5625,0.642578 0.53711,0.652344 0.51367,0.662109 0.5,0.671875 0.47461,0.683594 0.44922,0.693359 0.4375,0.703125 0.42578,0.712891 0.38672,0.722656 0.375,0.730469 0.35156,0.740234 0.33594,0.75 0.30078,0.759766 0.28711,0.769531 0.26367,0.777344 0.25,0.787109 0.21094,0.794922 0.1875,0.804688 0.17578,0.8125 0.15039,0.820312 0.125,0.830078 c 2.675,20.19 -16.83789,40.825716 -45.15039,49.619141 14.6875,-6.665038 24.92578,-21.425781 24.92578,-38.613281 0,-23.202625 -18.65039,-42.02593787 -41.77539,-42.36718788 0.05,-0.005375 0.10039,-0.01501562 0.15039,-0.02539062 -0.2625,0 -0.52656,-0.00976563 -0.78906,-0.00976563 z M 62.813,11.3145 a 14.25,14.249999 0 0 1 14.25,14.25 14.25,14.249999 0 0 1 -14.25,14.25 14.25,14.249999 0 0 1 -14.25,-14.25 14.25,14.249999 0 0 1 14.25,-14.25 z"
     id="path5078"
     style="fill:#004170;fill-opacity:1;fill-rule:nonzero;stroke:none" /><path
     d="m 124.09925,9.53125 0.75,0.521 0.7375,0.53125 0.7125,0.544 0.7,0.555125 0.6875,0.566 0.6625,0.577625 0.65,0.587375 0.625,0.600125 0.6125,0.609875 0.5875,0.620125 0.575,0.63125 0.5625,0.642625 0.5375,0.652375 0.5125,0.662625 0.5,0.67225 0.475,0.683625 0.45,0.692375 0.4375,0.702625 0.425,0.7125 0.3875,0.722625 0.375,0.731375 0.35,0.74125 0.3375,0.75 0.3,0.75975 0.2875,0.769125 0.2625,0.77725 0.25,0.786125 0.2125,0.796375 0.1875,0.80375 0.175,0.8125 0.15,0.82125 0.125,0.830125 c 2.675,20.19 -16.8375,40.82475 -45.15,49.618175 14.6875,-6.665038 24.925,-21.4258 24.925,-38.6133 0,-23.202625 -18.65,-42.025875 -41.775,-42.367125 0.05,-0.005375 0.1,-0.015125 0.15,-0.0255 C 76.58675,0.00975 76.32425,0 76.06175,0 34.05225,0 0,18.984875 0,42.402375 0,55.6695 10.92238,67.5045 28.022,75.278363 19.94088,69.791 14.61863,62.30475 13.4375,53.4185 10.7525,33.2325 30.26863,12.598625 58.58675,3.80375 43.89925,10.46875 33.66213,25.23 33.66213,42.402375 c 0,23.21725 18.64962,42.045914 41.77462,42.382828 -0.0375,0.0049 -0.0875,0.01465 -0.1375,0.01953 0.2625,0 0.5125,0.0098 0.7625,0.0098 42.0125,0 76.075,-18.984875 76.075,-42.412125 0,-13.26125 -10.9375,-25.097625 -28.0375,-32.871125 z"
     id="path5080"
     style="fill:none;stroke:none" /></svg>